# xmcd
#
# Track frame offsets:
#	150
#	15783
#	33508
#
# Disc length: 719 seconds
#
# Revision: 2
# Processed by: cddbd v1.5.1PL0 Copyright (c) Steve Scherf et al.
# Submitted via: audiograbber 1.82.02
#
DISCID=1302cd03
DTITLE=Münchener Freiheit - 1000 X Du (Maxi CD)
DYEAR=2003
DGENRE=Pop
TTITLE0=1000 X Du 2003 (Radio Edit)
TTITLE1=1000 X Du 2003 (Album Version)
TTITLE2=S.O.S. 2003
EXTD=
EXTT0=
EXTT1=
EXTT2=
PLAYORDER=
